<svg width="20" height="20" viewBox="0 0 20 20" fill="none" xmlns="http://www.w3.org/2000/svg">
<path d="M16.1637 3.88805C15.8832 3.61556 15.4183 3.61556 15.1458 3.88805L10.0161 9.01774L4.88639 3.88805C4.6139 3.61556 4.14097 3.60752 3.86848 3.88805C3.596 4.16857 3.596 4.62543 3.86848 4.898L8.99816 10.0357L3.86848 15.1654C3.596 15.4379 3.58796 15.9027 3.86848 16.1753C4.14901 16.4558 4.6139 16.4558 4.88639 16.1753L10.0161 11.0456L15.1458 16.1753C15.4183 16.4558 15.8912 16.4638 16.1637 16.1753C16.4362 15.8947 16.4362 15.4379 16.1637 15.1654L11.034 10.0357L16.1637 4.898C16.4362 4.62543 16.4442 4.16054 16.1637 3.88805Z" fill="white"/>
</svg>
