<svg width="20" height="20" viewBox="0 0 20 20" fill="none" xmlns="http://www.w3.org/2000/svg">
<g clip-path="url(#clip0_13502_193667)">
<path d="M19.6437 9.82186C19.6437 15.1854 15.195 19.6437 9.82186 19.6437C4.45835 19.6437 0 15.1854 0 9.82186C0 4.44873 4.44873 0 9.81223 0C15.1854 0 19.6437 4.44873 19.6437 9.82186ZM12.8165 5.99903L8.70486 12.6047L6.75012 10.0818C6.50939 9.76408 6.29755 9.67742 6.0183 9.67742C5.58498 9.67742 5.24796 10.0337 5.24796 10.467C5.24796 10.6885 5.33462 10.9004 5.47906 11.0929L7.896 14.0587C8.14637 14.3958 8.41599 14.5305 8.74338 14.5305C9.07078 14.5305 9.35002 14.3765 9.55224 14.0587L14.078 6.93308C14.1935 6.73086 14.3187 6.50939 14.3187 6.29755C14.3187 5.84497 13.9239 5.5561 13.5002 5.5561C13.2499 5.5561 12.9995 5.71016 12.8165 5.99903Z" fill="white"/>
</g>
<defs>
<clipPath id="clip0_13502_193667">
<rect width="20" height="20" fill="white"/>
</clipPath>
</defs>
</svg>
