<svg width="20" height="20" viewBox="0 0 20 20" fill="none" xmlns="http://www.w3.org/2000/svg">
<path d="M14.1096 8.1912C13.9871 8.06877 13.821 8 13.6479 8C13.4747 8 13.3087 8.06877 13.1862 8.1912L9.95368 11.4237L6.72116 8.1912C6.598 8.07224 6.43304 8.00642 6.26181 8.00791C6.09059 8.0094 5.9268 8.07808 5.80572 8.19915C5.68465 8.32023 5.61597 8.48402 5.61448 8.65524C5.61299 8.82647 5.67881 8.99143 5.79777 9.11459L9.49198 12.8088C9.61444 12.9312 9.78051 13 9.95368 13C10.1268 13 10.2929 12.9312 10.4154 12.8088L14.1096 9.11459C14.232 8.99213 14.3008 8.82606 14.3008 8.65289C14.3008 8.47973 14.232 8.31366 14.1096 8.1912Z" fill="white"/>
</svg>
