<svg width="20" height="20" viewBox="0 0 20 20" fill="none" xmlns="http://www.w3.org/2000/svg">
<path d="M7.26768 4.26768C7.09628 4.43913 7 4.67163 7 4.91405C7 5.15648 7.09628 5.38898 7.26768 5.56042L11.7932 10.0859L7.26768 14.6115C7.10114 14.7839 7.00899 15.0148 7.01107 15.2546C7.01316 15.4943 7.10931 15.7236 7.27882 15.8931C7.44833 16.0626 7.67763 16.1587 7.91734 16.1608C8.15705 16.1629 8.388 16.0708 8.56042 15.9042L13.7323 10.7323C13.9037 10.5609 14 10.3284 14 10.0859C14 9.84352 13.9037 9.61102 13.7323 9.43958L8.56042 4.26768C8.38898 4.09628 8.15648 4 7.91405 4C7.67163 4 7.43913 4.09628 7.26768 4.26768Z" fill="#EBEBF5" fill-opacity="0.4"/>
</svg>
