<svg width="87" height="28" viewBox="0 0 87 28" fill="none" xmlns="http://www.w3.org/2000/svg">
<path fill-rule="evenodd" clip-rule="evenodd" d="M82.2811 22.5584C82.2874 23.8784 83.3493 24.9535 84.6437 24.9502C85.95 24.9468 86.9953 23.8842 86.9999 22.555C87.0045 21.225 85.9627 20.146 84.6663 20.1378C83.3469 20.1294 82.2746 21.2175 82.2811 22.5584ZM31.7079 9.54725H35.7657C35.7685 9.60604 35.7721 9.66439 35.7756 9.72246L35.7756 9.72278L35.7756 9.72306C35.7831 9.84597 35.7905 9.96757 35.7908 10.0892C35.7945 11.9868 35.797 13.8845 35.7995 15.7821L35.8018 17.5624L35.8017 17.6479V17.6482C35.8015 17.7561 35.8013 17.8641 35.8055 17.9719C35.876 19.7667 36.7792 20.7738 38.438 20.909C39.9377 21.0311 41.4217 19.9075 41.7261 18.3976C41.7996 18.0326 41.833 17.6538 41.8346 17.2812C41.8416 15.4898 41.8408 13.6983 41.8399 11.9068C41.8396 11.3095 41.8393 10.7122 41.8393 10.1149V9.53413H45.9086V24.5334H41.862V22.3701C41.7713 22.4583 41.6922 22.5334 41.6213 22.6007L41.6213 22.6008C41.4908 22.7246 41.3884 22.8219 41.2929 22.9254C39.8742 24.4611 38.1525 25.2641 36.0584 24.8004C34.0116 24.3473 32.5967 23.0744 31.961 21.0501C31.785 20.4898 31.7091 19.8776 31.7037 19.2881C31.682 16.8821 31.6818 14.4759 31.6816 12.0697C31.6815 11.3366 31.6814 10.6035 31.6808 9.87046C31.6807 9.8049 31.6879 9.73934 31.6959 9.66573L31.6959 9.66555L31.6959 9.66552L31.6959 9.66531L31.696 9.66502C31.7 9.62813 31.7043 9.58921 31.7079 9.54725ZM16.648 16.9598C16.6992 14.6673 18.3607 13.0049 20.5643 13.0413C22.7819 13.078 24.3949 14.7823 24.3735 17.0664C24.3517 19.3939 22.6573 21.0916 20.4055 21.0418C18.2243 20.9936 16.5972 19.2261 16.648 16.9598ZM12.4889 17.0162C12.4889 21.3866 16.0187 24.8889 20.4342 24.8999C24.9647 24.9109 28.5572 21.4317 28.5618 17.0284C28.5662 12.7287 24.99 9.19206 20.6251 9.17947C16.0502 9.16623 12.4888 12.5965 12.4889 17.0162ZM70.372 3.05076H66.2814V24.5297H70.4V23.9542L70.4002 21.7766C70.4004 20.0798 70.4007 18.3829 70.3996 16.6862C70.3988 15.4935 70.7674 14.4751 71.7756 13.7563C73.3021 12.668 75.5073 13.1248 76.1423 14.7021C76.3337 15.1774 76.3996 15.7299 76.4048 16.2484C76.4237 18.155 76.4211 20.0619 76.4184 21.9688C76.4175 22.6384 76.4165 23.308 76.4165 23.9776V24.5195H80.5516C80.5607 24.4899 80.5699 24.4647 80.5781 24.4425L80.5783 24.4421L80.5783 24.4419L80.5784 24.4418L80.5784 24.4417L80.5784 24.4417C80.5935 24.401 80.6049 24.3701 80.6047 24.3393C80.5979 23.4096 80.5959 22.4796 80.5939 21.5497C80.5888 19.2041 80.5837 16.8586 80.5021 14.5156C80.4483 12.9646 79.8007 11.5586 78.597 10.5033C76.4589 8.62866 73.4182 8.74064 71.3564 10.7417C71.1535 10.9386 70.9588 11.1441 70.7642 11.3496L70.7641 11.3496L70.764 11.3497L70.7639 11.3499L70.7635 11.3502L70.7634 11.3504C70.6735 11.4453 70.5835 11.5403 70.4928 11.6344L70.372 11.5718V3.05076ZM60.7297 14.6202L63.2815 12.0824C61.9166 9.78248 57.9227 8.55663 54.7571 9.49729C51.3327 10.5147 48.9309 13.8028 49.0844 17.2632C49.2477 20.9418 51.8045 23.967 55.3981 24.7333C58.4641 25.3871 62.2721 23.9972 63.3024 21.8875L60.8043 19.3871C60.6184 19.5142 60.4345 19.6499 60.2493 19.7865L60.2493 19.7865C59.8398 20.0885 59.4246 20.3948 58.9698 20.6225C57.2481 21.4846 55.2217 21.0302 54.1021 19.6061C52.959 18.1521 52.9666 15.9103 54.1193 14.4638C55.4158 12.8369 57.6031 12.5579 59.5095 13.7841C59.815 13.9806 60.1126 14.1892 60.3863 14.381L60.3863 14.381L60.387 14.3816L60.3885 14.3826C60.5072 14.4658 60.6214 14.5458 60.7297 14.6202ZM6.71942 5.23656V9.77886H10.1062V13.6094H6.77076C6.76668 13.6806 6.76217 13.7447 6.75798 13.8041L6.75798 13.8042C6.74982 13.9201 6.74291 14.0184 6.74281 14.1168L6.74212 14.6466C6.7404 15.9538 6.73867 17.261 6.74261 18.5683C6.74804 20.3586 7.70807 21.1524 9.484 20.8379C9.68761 20.8019 9.88969 20.7573 10.108 20.7091L10.1081 20.7091C10.2125 20.686 10.3206 20.6622 10.4343 20.638C10.4343 20.9031 10.4346 21.1664 10.435 21.4284V21.4287C10.4362 22.3597 10.4374 23.2739 10.423 24.1878C10.4212 24.3026 10.2825 24.4857 10.1724 24.5178C8.10422 25.1205 6.09204 25.1987 4.28235 23.7744C3.15586 22.8879 2.68103 21.6705 2.64414 20.283C2.60566 18.8333 2.58954 17.3831 2.57343 15.9328V15.9328C2.56624 15.2858 2.55905 14.6389 2.54987 13.992C2.5491 13.9381 2.54404 13.8844 2.53761 13.8159C2.53414 13.7791 2.53028 13.738 2.52647 13.6904H0V9.7938C0.126826 9.7938 0.25477 9.7942 0.383481 9.79459H0.383651C0.668376 9.79547 0.956855 9.79636 1.24528 9.79302C2.43748 9.77925 3.00921 9.23038 3.03353 8.04124C3.04646 7.40721 3.04335 6.77281 3.04016 6.12413C3.03872 5.8316 3.03727 5.53617 3.03727 5.23656H6.71942Z" fill="white"/>
</svg>
